<?xml version="1.0" encoding="iso-8859-1"?>
<!-- Generator: Adobe Illustrator 21.0.0, SVG Export Plug-In . SVG Version: 6.00 Build 0)  -->
<svg xmlns="http://www.w3.org/2000/svg" xmlns:xlink="http://www.w3.org/1999/xlink" version="1.1" id="Capa_1" x="0px" y="0px" viewBox="0 0 512 512" style="enable-background:new 0 0 512 512;" xml:space="preserve" width="512" height="512">
<g>
	<path style="fill:#FFDA2D;" d="M256,0C115.3,0,0,115.3,0,256s115.3,256,256,256s256-115.3,256-256S396.7,0,256,0z"/>
	<path style="fill:#FDBF00;" d="M512,256c0,140.7-115.3,256-256,256V0C396.7,0,512,115.3,512,256z"/>
	<g>
		<path style="fill:#FDBF00;" d="M256,60C148.599,60,60,148.599,60,256c0,107.399,88.599,196,196,196s196-88.601,196-196    C452,148.599,363.401,60,256,60z"/>
	</g>
	<path style="fill:#FF9100;" d="M452,256c0,107.399-88.599,196-196,196V60C363.401,60,452,148.599,452,256z"/>
	<g>
		<path style="fill:#FFDA2D;" d="M316,211c-4.799,0-10.8,0.899-17.1,2.1c1.199-6.301,2.1-12.301,2.1-17.1c0-24.901-20.099-45-45-45    s-45,20.099-45,45c0,4.799,0.901,10.8,2.1,17.1c-6.301-1.201-12.301-2.1-17.1-2.1c-24.901,0-45,20.099-45,45    c0,24.899,20.099,45,45,45c4.799,0,10.8-0.901,17.1-2.1c-1.199,6.301-2.1,12.299-2.1,17.1c0,24.899,20.099,45,45,45    s45-20.101,45-45c0-4.801-0.901-10.8-2.1-17.1c6.301,1.199,12.301,2.1,17.1,2.1c24.901,0,45-20.101,45-45    C361,231.099,340.901,211,316,211z"/>
	</g>
	<path style="fill:#FDBF00;" d="M361,256c0,24.899-20.099,45-45,45c-4.799,0-10.8-0.901-17.1-2.1c1.199,6.301,2.1,12.299,2.1,17.1   c0,24.899-20.099,45-45,45V151c24.901,0,45,20.099,45,45c0,4.799-0.901,10.8-2.1,17.1c6.301-1.201,12.301-2.1,17.1-2.1   C340.901,211,361,231.099,361,256z"/>
</g>















</svg>
